<?xml version="1.0" standalone="no"?>
<!DOCTYPE svg PUBLIC "-//W3C//DTD SVG 20010904//EN"
 "http://www.w3.org/TR/2001/REC-SVG-20010904/DTD/svg10.dtd">
<svg version="1.0" xmlns="http://www.w3.org/2000/svg"
 width="1080.000000pt" height="1180.000000pt" viewBox="0 0 540.000000 329.000000"
 preserveAspectRatio="xMidYMid meet">

<g transform="translate(0.000000,558.000000) scale(0.100000,-0.100000)"
fill="#000000" stroke="none">
<path fill="#f14084" d="M3210 4556 c-329 -42 -561 -127 -686 -251 -74 -74 -122 -158 -168
-296 -73 -217 -101 -416 -101 -719 0 -303 28 -502 101 -719 88 -263 211 -382
484 -469 221 -70 459 -97 779 -89 349 9 593 60 791 163 159 83 255 219 325
459 108 373 108 937 0 1310 -50 172 -127 311 -213 385 -115 98 -315 172 -587
216 -137 22 -582 28 -725 10z m510 -516 c239 -20 376 -83 435 -200 46 -91 54
-223 19 -324 -28 -78 -103 -155 -168 -172 -36 -9 -33 -17 15 -32 97 -30 167
-101 195 -200 26 -87 16 -240 -20 -319 -51 -113 -165 -197 -326 -240 -56 -15
-114 -17 -410 -18 l-345 0 0 305 0 305 160 0 160 0 3 -167 2 -168 144 0 c103
0 156 4 187 15 84 30 119 84 119 183 0 75 -26 118 -95 152 l-50 25 -414 5
-414 5 -39 115 c-21 63 -38 120 -38 127 0 9 102 13 448 15 424 3 449 4 486 23
55 28 79 64 83 127 5 67 -18 115 -68 140 -54 28 -176 38 -455 38 l-250 0 -41
127 c-23 70 -39 131 -37 135 7 11 577 10 714 -2z"/>
</g>
</svg>
